<?xml version="1.0" encoding="UTF-8" standalone="no"?>
<svg
   xmlns:dc="http://purl.org/dc/elements/1.1/"
   xmlns:cc="http://creativecommons.org/ns#"
   xmlns:rdf="http://www.w3.org/1999/02/22-rdf-syntax-ns#"
   xmlns:svg="http://www.w3.org/2000/svg"
   xmlns="http://www.w3.org/2000/svg"
   xmlns:sodipodi="http://sodipodi.sourceforge.net/DTD/sodipodi-0.dtd"
   xmlns:inkscape="http://www.inkscape.org/namespaces/inkscape"
   inkscape:version="1.0 (4035a4fb49, 2020-05-01)"
   sodipodi:docname="V3avadex_black_red.svg"
   version="1.1"
   id="Layer_1"
   x="0px"
   y="0px"
   viewBox="0 0 168.3 193.8"
   style="enable-background:new 0 0 168.3 193.8;"
   xml:space="preserve"><sodipodi:namedview
   inkscape:current-layer="Layer_1"
   inkscape:window-maximized="1"
   inkscape:window-y="-9"
   inkscape:window-x="-9"
   inkscape:cy="118.87445"
   inkscape:cx="73.846329"
   inkscape:zoom="8.5655313"
   showgrid="false"
   id="namedview26"
   inkscape:window-height="1001"
   inkscape:window-width="1920"
   inkscape:pageshadow="2"
   inkscape:pageopacity="0"
   guidetolerance="10"
   gridtolerance="10"
   objecttolerance="10"
   borderopacity="1"
   bordercolor="#666666"
   pagecolor="#ffffff" /><metadata
   id="metadata27"><rdf:RDF><cc:Work
       rdf:about=""><dc:format>image/svg+xml</dc:format><dc:type
         rdf:resource="http://purl.org/dc/dcmitype/StillImage" /><dc:title></dc:title></cc:Work></rdf:RDF></metadata><defs
   id="defs25" />
<style
   type="text/css"
   id="style2">
	.st0{fill:#FF007A;}
	.st1{fill-rule:evenodd;clip-rule:evenodd;fill:#FF007A;}
</style>









<style
   id="style910"
   type="text/css">
	.st0{fill-rule:evenodd;clip-rule:evenodd;fill:#E84142;}
	.st1{fill:#FFFFFF;}
</style><rect
   style="fill:#280b0b;fill-opacity:1;stroke-width:5.3487"
   id="rect944"
   width="166.2477"
   height="160.43083"
   x="1.6344509"
   y="34.770138" /><path
   style="clip-rule:evenodd;fill:#d40000;fill-opacity:1;fill-rule:evenodd"
   id="path6"
   d="m 76.806834,117.0475 c -0.2,-3.8 -0.7,-6.3 -1.8,-8.6 -0.4,-0.89999 -0.8,-1.69999 -0.9,-1.69999 -0.1,0 0.1,0.7 0.4,1.49999 0.8,2.2 0.9,5.3 0.4,8.8 -0.7,4.5 -1,5.1 -5.800004,10 -2.2,2.3 -4.8,5.2 -5.8,6.4 l -1.7,2.2 1.7,-1.6 c 2.1,-2 6.9,-5.8 8.000004,-6.3 0.7,-0.4 0.8,-0.4 1.3,0.1 0.4,0.4 0.5,1 0.5,3.9 0.1,4.5 0.7,7.3 2.2,10.2 0.8,1.5 0.9,1.2 0.2,-0.5 -0.5,-1.3 -0.6,-1.9 -0.6,-6.2 0,-8.7 1,-10.8 7.1,-14.3 1.5,-0.9 4.1,-2.2 5.6,-2.9 1.6,-0.7 2.8,-1.3 2.7,-1.3 -0.2,-0.2 -6.1,1.5 -8.4,2.5 -3.5,1.4 -4.1,1.5 -4.5,1.4 -0.3,-0.3 -0.5,-1.1 -0.6,-3.6 z"
   class="st0" /><path
   id="path35"
   d="m 86.58179,129.01219 c -0.306465,-1.36107 -0.557211,-3.84408 -0.557211,-5.51781 0,-2.94019 -0.516703,-4.84969 -1.312309,-4.84969 -0.210919,0 -1.616988,0.94522 -3.124598,2.10048 -1.507611,1.15527 -2.74111,1.96568 -2.74111,1.80092 0,-0.16476 1.62979,-2.06668 3.621755,-4.22648 1.991966,-2.1598 3.928267,-4.69052 4.30289,-5.62382 0.374625,-0.93329 0.795954,-3.7002 0.936288,-6.14868 0.295578,-5.15708 0.760871,-4.59369 1.249176,1.51255 0.198049,2.47659 0.543837,4.21055 0.865278,4.33894 0.294473,0.11763 2.129917,-0.42526 4.078767,-1.20641 4.747286,-1.90283 5.054714,-1.78964 1.313579,0.48365 -7.001341,4.25436 -7.482944,5.09939 -7.830857,13.74018 l -0.244437,6.07084 z"
   style="fill:#d40000;fill-opacity:1;stroke-width:0.457715" /><g
   style="fill:#d40000"
   transform="matrix(0.2168677,0.06932116,-0.05228485,0.29257594,-20.388627,34.323194)"
   id="g916"><path
     style="fill:#d40000;fill-opacity:1;stroke-width:0.543181"
     class="st1"
     d="m 441.88068,181.31006 c 3.40583,3.12816 7.36001,2.08541 8.85508,-2.33517 l 9.21315,-27.91193 c 1.49507,-4.42059 -1.28923,-6.97097 -6.19017,-5.67855 l -30.74217,8.107 c -4.84521,1.27773 -6.07077,4.88556 -2.72061,8.0284 z m -17.87638,53.77163 c 3.40583,3.12818 7.30432,2.10012 8.79939,-2.32048 l 2.01445,-6.35878 4.83928,-14.67957 c 1.04413,-4.08974 -0.0244,-8.31108 -2.87872,-11.37277 l -37.42116,-34.47413 c -3.30527,-2.73086 -7.91137,-3.79425 -12.4853,-2.85294 l -22.33262,5.88932 c -4.90093,1.29242 -6.13902,4.85058 -2.72062,8.02841 z"
     id="path914" /></g><path
   style="fill:#d40000;fill-opacity:1;stroke-width:0.466988"
   d="m 96.51418,122.45508 c -0.319013,-1.36107 -0.580013,-3.84409 -0.580013,-5.51781 0,-2.94019 -0.53786,-4.84969 -1.36602,-4.84969 -0.21956,0 -1.68317,0.94522 -3.25249,2.10048 -1.56932,1.15527 -2.8533,1.96568 -2.8533,1.80092 0,-0.16477 1.6965,-2.06668 3.76999,-4.22648 2.07349,-2.1598 4.08905,-4.69052 4.479003,-5.62382 0.389958,-0.9333 0.828526,-3.7002 0.974606,-6.148679 0.30768,-5.157086 0.79202,-4.593671 1.30031,1.512539 0.20615,2.4766 0.56609,4.21055 0.90069,4.33895 0.306524,0.11763 2.217094,-0.42526 4.245714,-1.20641 4.94158,-1.90283 5.26159,-1.78964 1.36734,0.48365 -7.287904,4.25435 -7.789224,5.09938 -8.151372,13.74018 l -0.25444,6.07084 z"
   id="path35-7" /></svg>
