<?xml version="1.0" encoding="UTF-8" standalone="no"?>
<svg
   xmlns:dc="http://purl.org/dc/elements/1.1/"
   xmlns:cc="http://creativecommons.org/ns#"
   xmlns:rdf="http://www.w3.org/1999/02/22-rdf-syntax-ns#"
   xmlns:svg="http://www.w3.org/2000/svg"
   xmlns="http://www.w3.org/2000/svg"
   xmlns:sodipodi="http://sodipodi.sourceforge.net/DTD/sodipodi-0.dtd"
   xmlns:inkscape="http://www.inkscape.org/namespaces/inkscape"
   width="14"
   height="15"
   viewBox="0 0 14 15"
   fill="none"
   version="1.1"
   id="svg22"
   sodipodi:docname="logo_white.811f9ef7.svg"
   inkscape:version="1.0 (4035a4fb49, 2020-05-01)">
  <metadata
     id="metadata28">
    <rdf:RDF>
      <cc:Work
         rdf:about="">
        <dc:format>image/svg+xml</dc:format>
        <dc:type
           rdf:resource="http://purl.org/dc/dcmitype/StillImage" />
        <dc:title></dc:title>
      </cc:Work>
    </rdf:RDF>
  </metadata>
  <defs
     id="defs26" />
  <sodipodi:namedview
     inkscape:document-rotation="0"
     pagecolor="#ffffff"
     bordercolor="#666666"
     borderopacity="1"
     objecttolerance="10"
     gridtolerance="10"
     guidetolerance="10"
     inkscape:pageopacity="0"
     inkscape:pageshadow="2"
     inkscape:window-width="1920"
     inkscape:window-height="1001"
     id="namedview24"
     showgrid="false"
     inkscape:zoom="55.333333"
     inkscape:cx="7"
     inkscape:cy="6.7725904"
     inkscape:window-x="-9"
     inkscape:window-y="-9"
     inkscape:window-maximized="1"
     inkscape:current-layer="svg22" />
  <g
     style="mix-blend-mode:darken;fill:#d40000;fill-opacity:1"
     id="g20"
     transform="matrix(-1,0,0,1,13.347756,0)">
    <path
       d="M 4.15217,1.55141 C 3.96412,1.52242 3.95619,1.51902 4.04468,1.5055 4.21427,1.47958 4.61472,1.51491 4.89067,1.58012 5.53489,1.73232 6.12109,2.12221 6.74683,2.81466 l 0.16624,0.18396 0.23781,-0.038 C 8.15274,2.8006 9.17194,2.92778 10.0244,3.31918 c 0.2345,0.10768 0.6043,0.32203 0.6505,0.37711 0.0147,0.01755 0.0417,0.13055 0.06,0.25113 0.0633,0.41716 0.0316,0.73692 -0.0967,0.97575 -0.0699,0.12996 -0.0738,0.17115 -0.0268,0.28237 0.0375,0.08876 0.142,0.15445 0.2455,0.15431 0.2118,-2.9e-4 0.4399,-0.34065 0.5455,-0.81424 l 0.042,-0.18811 0.0831,0.09359 c 0.456,0.5135 0.8142,1.21379 0.8757,1.71226 l 0.016,0.12997 -0.0766,-0.11815 C 12.2107,5.97186 12.0781,5.83346 11.9084,5.72183 11.6024,5.52062 11.2789,5.45215 10.4222,5.40727 9.64839,5.36675 9.21045,5.30106 8.77621,5.16032 8.03738,4.9209 7.66493,4.60204 6.78729,3.4576 6.39748,2.94928 6.15654,2.66804 5.91687,2.44155 5.37228,1.92691 4.83716,1.65701 4.15217,1.55141 Z"
       fill="#000000"
       id="path2"
       style="fill:#d40000;fill-opacity:1" />
    <path
       d="m 10.8494,2.68637 c 0.0195,-0.34062 0.0659,-0.56529 0.1594,-0.77047 0.037,-0.08121 0.0716,-0.14768 0.077,-0.14768 0.0053,0 -0.0108,0.05994 -0.0358,0.1332 -0.0679,0.19912 -0.0791,0.47148 -0.0323,0.78836 0.0594,0.40206 0.0932,0.46007 0.5208,0.89438 0.2005,0.20372 0.4338,0.46064 0.5183,0.57095 L 12.2106,4.35568 12.0568,4.21234 C 11.8688,4.03705 11.4364,3.6952 11.3409,3.64633 11.2768,3.61356 11.2673,3.61413 11.2278,3.65321 11.1914,3.68922 11.1837,3.74333 11.1787,3.99915 11.1708,4.39786 11.1161,4.65377 10.9842,4.90965 10.9128,5.04805 10.9015,5.01851 10.9661,4.8623 11.0143,4.74566 11.0192,4.69439 11.0189,4.30842 11.0181,3.53291 10.9255,3.34647 10.3823,3.02709 10.2447,2.94618 10.0179,2.8295 9.87839,2.76778 9.73887,2.70606 9.62805,2.6523 9.63208,2.64828 c 0.01538,-0.01521 0.54512,0.13847 0.75842,0.22 0.3172,0.12126 0.3695,0.13698 0.408,0.12235 0.0259,-0.00981 0.0384,-0.08455 0.0509,-0.30426 z"
       fill="#000000"
       id="path4"
       style="fill:#d40000;fill-opacity:1" />
    <path
       d="M 4.51745,4.01304 C 4.13569,3.49066 3.89948,2.68973 3.95062,2.091 L 3.96643,1.90572 4.05333,1.92148 C 4.21652,1.95106 4.49789,2.05515 4.62964,2.13469 4.9912,2.35293 5.14773,2.64027 5.30697,3.37811 5.35362,3.59423 5.41482,3.8388 5.44298,3.9216 5.48831,4.05487 5.65962,4.36617 5.7989,4.56834 5.89922,4.71395 5.83258,4.78295 5.61082,4.76305 5.27215,4.73267 4.8134,4.41799 4.51745,4.01304 Z"
       fill="#000000"
       id="path6"
       style="fill:#d40000;fill-opacity:1" />
    <path
       d="M 10.3863,7.90088 C 8.60224,7.18693 7.97389,6.56721 7.97389,5.52157 c 0,-0.15388 0.00533,-0.27978 0.01182,-0.27978 0.0065,0 0.07553,0.05078 0.15339,0.11286 0.36178,0.2884 0.7669,0.41158 1.8884,0.5742 0.66,0.0957 1.0314,0.173 1.374,0.28592 1.0889,0.35894 1.7626,1.08735 1.9233,2.07949 0.0467,0.28829 0.0193,0.82891 -0.0564,1.11384 -0.0597,0.22505 -0.2421,0.6307 -0.2905,0.6463 -0.0134,0.0043 -0.0265,-0.0468 -0.03,-0.11631 C 12.9296,9.56554 12.7402,9.20285 12.4221,8.93116 12.0604,8.62227 11.5745,8.37633 10.3863,7.90088 Z"
       fill="#000000"
       id="path8"
       style="fill:#d40000;fill-opacity:1" />
    <path
       d="M 9.13385,8.19748 C 9.11149,8.06527 9.07272,7.89643 9.04769,7.82228 L 9.00217,7.68748 9.08672,7.7818 C 9.20374,7.91233 9.2962,8.07937 9.37457,8.30185 9.43438,8.47165 9.44111,8.52215 9.44066,8.79807 9.4402,9.06896 9.43273,9.12575 9.3775,9.27858 9.29042,9.51959 9.18233,9.69048 9.00097,9.87391 8.67507,10.2036 8.25607,10.3861 7.65143,10.4618 7.54633,10.4749 7.24,10.4971 6.97069,10.511 6.292,10.5461 5.84531,10.6186 5.44393,10.7587 5.38623,10.7788 5.3347,10.7911 5.32947,10.7859 5.31323,10.7698 5.58651,10.6079 5.81223,10.4998 6.1305,10.3474 6.44733,10.2643 7.15719,10.1468 7.50785,10.0887 7.86998,10.0183 7.96194,9.99029 8.83033,9.72566 9.27671,9.04276 9.13385,8.19748 Z"
       fill="#000000"
       id="path10"
       style="fill:#d40000;fill-opacity:1" />
    <path
       d="M 9.95169,9.64109 C 9.71465,9.13463 9.66022,8.64564 9.79009,8.18961 9.80399,8.14088 9.82632,8.101 9.83976,8.101 c 0.01343,0 0.06937,0.03005 0.12428,0.06677 0.10926,0.07309 0.32836,0.19618 0.91196,0.51246 0.7283,0.39467 1.1436,0.70027 1.426,1.04942 0.2473,0.30575 0.4003,0.65405 0.474,1.07875 0.0417,0.2405 0.0172,0.8193 -0.0449,1.0615 -0.1958,0.7638 -0.6509,1.3637 -1.3,1.7138 -0.0951,0.0513 -0.1805,0.0934 -0.1897,0.0936 -0.0093,2e-4 0.0254,-0.0874 0.077,-0.1946 0.2183,-0.4537 0.2432,-0.895 0.0781,-1.3862 C 11.2954,11.7957 11.0893,11.4287 10.6732,10.8084 10.1893,10.0873 10.0707,9.89539 9.95169,9.64109 Z"
       fill="#000000"
       id="path12"
       style="fill:#d40000;fill-opacity:1" />
    <path
       d="m 3.25046,12.3737 c 0.66206,-0.5556 1.48583,-0.9503 2.2362,-1.0715 0.32339,-0.0522 0.86211,-0.0315 1.16157,0.0447 0.48001,0.1221 0.9094,0.3956 1.13271,0.7214 0.21824,0.3184 0.31187,0.5959 0.40935,1.2133 0.03846,0.2436 0.08028,0.4881 0.09294,0.5435 0.07321,0.32 0.21567,0.5757 0.39221,0.7042 0.28039,0.204 0.76321,0.2166 1.23818,0.0325 0.08061,-0.0313 0.15058,-0.0529 0.15548,-0.048 0.0173,0.017 -0.22191,0.1761 -0.39063,0.2599 C 9.45143,14.8864 9.2709,14.93 9.03102,14.93 8.59601,14.93 8.23486,14.7101 7.9335,14.2616 7.87419,14.1733 7.7409,13.909 7.63729,13.6741 7.3191,12.9528 7.16199,12.7331 6.79255,12.4926 6.47104,12.2834 6.05641,12.2459 5.74449,12.3979 c -0.40974,0.1997 -0.52406,0.7201 -0.2306,1.0499 0.11664,0.1311 0.33414,0.2441 0.51199,0.2661 0.33273,0.0412 0.61867,-0.2104 0.61867,-0.5443 0,-0.2168 -0.08384,-0.3405 -0.29489,-0.4352 -0.28826,-0.1293 -0.5981,0.0218 -0.59662,0.291 6.4e-4,0.1148 0.05092,0.1868 0.16667,0.2389 0.07426,0.0334 0.07598,0.036 0.01543,0.0235 C 5.67066,13.2333 5.6087,12.9164 5.82135,12.706 6.07667,12.4535 6.60461,12.5649 6.78591,12.9097 6.86208,13.0545 6.87092,13.3429 6.80451,13.517 6.6559,13.9068 6.22256,14.1117 5.78297,14.0002 5.48368,13.9242 5.36181,13.842 5.00097,13.4726 4.37395,12.8306 4.13053,12.7062 3.22657,12.566 L 3.05335,12.5391 Z"
       fill="#000000"
       id="path14"
       style="fill:#d40000;fill-opacity:1" />
    <path
       fill-rule="evenodd"
       clip-rule="evenodd"
       d="M 4.0590569,4.6361654 C 4.1913869,4.8179754 4.08737,5.01757 3.86067,5.14567 3.7346,5.21689 3.47541,5.28905 3.34564,5.28905 3.19887,5.28905 3.14847,5.23278 3.14847,5.23278 3.06337,5.15255 3.01544,5.16658 2.5784,4.39555 1.97166,3.45981 1.4096731,2.7197146 1.3958231,2.7067146 1.3637931,2.6766646 1.41856,2.64153 2.51654,4.59413 2.69394,5.0011 2.55182,5.15049 2.55182,5.20845 2.55182,5.32636 2.51946,5.38834 2.37311,5.55059 2.12914,5.8211 2.02008,6.12505 1.94135,6.7541 1.8531,7.45926 1.60492,7.95737 0.917156,8.80989 0.514562,9.30893 0.448686,9.4004 0.3471,9.60153 0.219144,9.85482 0.183961,9.99669 0.169701,10.3165 c -0.015072,0.3382 0.014282,0.5567 0.118233,0.88 0.091005,0.2831 0.185998,0.47 0.428844,0.8438 0.209573,0.3226 0.330242,0.5624 0.330242,0.6562 0,0.0746 0.01434,0.0747 0.33909,0.0018 0.77717,-0.1744 1.40823,-0.4812 1.76314,-0.8572 0.21966,-0.2327 0.27123,-0.3612 0.2729,-0.68 C 3.42325,10.9525 3.41587,10.9088 3.35914,10.7888 3.2668,10.5935 3.09869,10.4311 2.72817,10.1794 2.2427,9.84953 2.03534,9.58398 1.97807,9.21878 1.93108,8.91913 1.98559,8.70771 2.25416,8.14825 2.53214,7.56916 2.60103,7.32239 2.64763,6.73869 2.67773,6.36158 2.71941,6.21286 2.82842,6.09348 2.94212,5.969 3.04447,5.92684 3.32584,5.88863 3.78457,5.82635 4.07667,5.70839 4.31677,5.48849 4.52505,5.29772 4.61221,5.11391 4.62558,4.8372 L 4.63574,4.62747 4.51934,4.49259 C 0.78795701,1.5698073 3.1946497,4.3175748 4.0590569,4.6361654 Z M 1.28364,10.6992 C 1.37894,10.5314 1.3283,10.3158 1.16889,10.2104 1.01827,10.1109 0.78428,10.1578 0.78428,10.2875 c 0,0.0396 0.022023,0.0684 0.071657,0.0938 0.083577,0.0427 0.089644,0.0908 0.023886,0.189 -0.066593,0.0995 -0.061219,0.187 0.015168,0.2464 0.123109,0.0958 0.297379,0.0431 0.388649,-0.1175 z"
       fill="#000000"
       id="path16"
       style="fill:#d40000;fill-opacity:1"
       sodipodi:nodetypes="ccsccccsccsccccscccccscccccccccccscccc" />
  </g>
  <g
     style="fill:#d40000"
     transform="matrix(0.02843456,0.015408,-0.01537846,0.04329991,-0.67421194,-6.8715181)"
     id="g916">
    <path
       style="fill:#d40000;fill-opacity:1;stroke-width:0.543181"
       class="st1"
       d="m 441.88068,181.31006 c 3.40583,3.12816 7.36001,2.08541 8.85508,-2.33517 l 9.21315,-27.91193 c 1.49507,-4.42059 -1.28923,-6.97097 -6.19017,-5.67855 l -30.74217,8.107 c -4.84521,1.27773 -6.07077,4.88556 -2.72061,8.0284 z m -17.87638,53.77163 c 3.40583,3.12818 7.30432,2.10012 8.79939,-2.32048 l 2.01445,-6.35878 4.83928,-14.67957 c 1.04413,-4.08974 -0.0244,-8.31108 -2.87872,-11.37277 l -37.42116,-34.47413 c -3.30527,-2.73086 -7.91137,-3.79425 -12.4853,-2.85294 l -22.33262,5.88932 c -4.90093,1.29242 -6.13902,4.85058 -2.72062,8.02841 z"
       id="path914" />
  </g>
  <rect
     style="fill:#000000;fill-opacity:0"
     id="rect863"
     width="6.8313255"
     height="1.9879518"
     x="6.7771087"
     y="0.6506024" />
  <rect
     style="fill:#000000;fill-opacity:0"
     id="rect865"
     width="2.9819276"
     height="1.879518"
     x="10.319277"
     y="0.39759037" />
  <rect
     style="fill:#000000;fill-opacity:0;stroke-width:2.73193"
     id="rect867"
     width="2.4578314"
     height="1.626506"
     x="10.969879"
     y="1.5180722" />
  <rect
     style="fill:#000000;fill-opacity:0"
     id="rect871"
     width="2.0240965"
     height="3.5783134"
     x="4.572289"
     y="2.8915663" />
  <rect
     style="fill:#000000;fill-opacity:0"
     id="rect873"
     width="3.0542169"
     height="1.2108433"
     x="4.3734941"
     y="0.41566265" />
  <path
     style="fill:#000000;fill-opacity:0;stroke-width:0.0180723"
     d="m 12.114458,12.723201 c -0.02982,-0.008 -0.131476,-0.03261 -0.225904,-0.05474 -0.532326,-0.124773 -1.039679,-0.338343 -1.381688,-0.58162 -0.212908,-0.151444 -0.422617,-0.374095 -0.499595,-0.530427 -0.061385,-0.124664 -0.061488,-0.12531 -0.061488,-0.387476 0,-0.262584 4.6e-6,-0.262613 0.062052,-0.388881 0.08072,-0.164261 0.24673,-0.328011 0.553251,-0.54571 0.530519,-0.3767884 0.71237,-0.5839753 0.791216,-0.9014497 C 11.44067,8.9770762 11.399713,8.7853831 11.0939,8.123494 10.827246,7.5463578 10.772932,7.3533674 10.71267,6.7688931 10.66693,6.3252761 10.632504,6.2071945 10.511653,6.0794131 10.398459,5.9597264 10.31607,5.9272337 9.9909639,5.8740625 9.5261897,5.7980487 9.2332218,5.6686787 9.0004417,5.4366643 8.8145249,5.251359 8.7264284,5.0248139 8.7260401,4.7310249 8.7259124,4.6343237 8.7311736,4.6216025 8.8082576,4.5322298 8.9972372,4.3131231 9.8389982,3.5487085 11.183735,2.3750263 c 1.181459,-1.0311742 2.040849,-1.76791181 2.05072,-1.75804087 0.0082,0.008186 -0.442023,0.54910597 -0.764893,0.91900907 -0.854785,0.979302 -1.730699,1.8611009 -2.7672427,2.7858333 -0.3775417,0.3368165 -0.4335059,0.4064191 -0.4338822,0.539618 -3.034e-4,0.107407 0.047501,0.1823398 0.1661701,0.2604669 0.1547019,0.10185 0.3553191,0.1614039 0.54887,0.1629339 l 0.1641998,0.0013 0.08461,-0.069237 c 0.08762,-0.071705 0.270443,-0.334487 0.44847,-0.6446181 0.130209,-0.2268302 0.994985,-1.556189 1.005496,-1.5456776 0.0045,0.0045 -0.188674,0.3587404 -0.429283,0.787195 -0.240608,0.4284545 -0.453407,0.8252183 -0.472887,0.8816973 -0.04697,0.1361808 -0.06016,0.282931 -0.03441,0.3828094 0.01153,0.044729 0.02791,0.1191715 0.0364,0.1654279 0.02021,0.1101481 0.05001,0.1628814 0.172096,0.3044516 0.247604,0.2871274 0.352565,0.5696709 0.433028,1.1656626 0.105628,0.7823939 0.334428,1.2359491 1.112239,2.2048193 0.286575,0.3569682 0.39631,0.5139869 0.490796,0.7022729 0.144136,0.2872241 0.165045,0.3901451 0.165729,0.8157991 5.6e-4,0.349056 -0.0014,0.368601 -0.05585,0.570196 -0.1036,0.383234 -0.182383,0.55027 -0.494532,1.048504 -0.20024,0.319611 -0.296557,0.507703 -0.314566,0.614299 -0.01112,0.06584 -0.01635,0.07109 -0.06918,0.06959 -0.03143,-8.96e-4 -0.08154,-0.0082 -0.111363,-0.01613 z m 0.287375,-1.868882 c 0.124105,-0.05185 0.15119,-0.161102 0.07301,-0.294501 -0.05336,-0.09105 -0.04733,-0.129818 0.02704,-0.17375 0.05898,-0.03484 0.08179,-0.08423 0.06431,-0.139278 -0.0334,-0.105227 -0.291483,-0.122804 -0.415397,-0.02829 -0.221306,0.168798 -0.162459,0.565418 0.09542,0.643155 0.07115,0.02145 0.08869,0.02062 0.155604,-0.0073 z"
     id="path875" />
  <path
     style="fill:#000000;fill-opacity:0;stroke-width:0.0180723"
     d="m 12.114458,12.723201 c -0.02982,-0.008 -0.131476,-0.03261 -0.225904,-0.05474 -0.532326,-0.124773 -1.039679,-0.338343 -1.381688,-0.58162 -0.212908,-0.151444 -0.422617,-0.374095 -0.499595,-0.530427 -0.061385,-0.124664 -0.061488,-0.12531 -0.061488,-0.387476 0,-0.262584 4.6e-6,-0.262613 0.062052,-0.388881 0.08072,-0.164261 0.24673,-0.328011 0.553251,-0.54571 0.530519,-0.3767884 0.71237,-0.5839753 0.791216,-0.9014497 C 11.44067,8.9770762 11.399713,8.7853831 11.0939,8.123494 10.827246,7.5463578 10.772932,7.3533674 10.71267,6.7688931 10.66693,6.3252761 10.632504,6.2071945 10.511653,6.0794131 10.398459,5.9597264 10.31607,5.9272337 9.9909639,5.8740625 9.5261897,5.7980487 9.2332218,5.6686787 9.0004417,5.4366643 8.8145249,5.251359 8.7264284,5.0248139 8.7260401,4.7310249 8.7259124,4.6343237 8.7311736,4.6216025 8.8082576,4.5322298 8.9972372,4.3131231 9.8389982,3.5487085 11.183735,2.3750263 c 1.181459,-1.0311742 2.040849,-1.76791181 2.05072,-1.75804087 0.0082,0.008186 -0.442023,0.54910597 -0.764893,0.91900907 -0.854785,0.979302 -1.730699,1.8611009 -2.7672427,2.7858333 -0.3775417,0.3368165 -0.4335059,0.4064191 -0.4338822,0.539618 -3.034e-4,0.107407 0.047501,0.1823398 0.1661701,0.2604669 0.1547019,0.10185 0.3553191,0.1614039 0.54887,0.1629339 l 0.1641998,0.0013 0.08461,-0.069237 c 0.08762,-0.071705 0.270443,-0.334487 0.44847,-0.6446181 0.130209,-0.2268302 0.994985,-1.556189 1.005496,-1.5456776 0.0045,0.0045 -0.188674,0.3587404 -0.429283,0.787195 -0.240608,0.4284545 -0.453407,0.8252183 -0.472887,0.8816973 -0.04697,0.1361808 -0.06016,0.282931 -0.03441,0.3828094 0.01153,0.044729 0.02791,0.1191715 0.0364,0.1654279 0.02021,0.1101481 0.05001,0.1628814 0.172096,0.3044516 0.247604,0.2871274 0.352565,0.5696709 0.433028,1.1656626 0.105628,0.7823939 0.334428,1.2359491 1.112239,2.2048193 0.286575,0.3569682 0.39631,0.5139869 0.490796,0.7022729 0.144136,0.2872241 0.165045,0.3901451 0.165729,0.8157991 5.6e-4,0.349056 -0.0014,0.368601 -0.05585,0.570196 -0.1036,0.383234 -0.182383,0.55027 -0.494532,1.048504 -0.20024,0.319611 -0.296557,0.507703 -0.314566,0.614299 -0.01112,0.06584 -0.01635,0.07109 -0.06918,0.06959 -0.03143,-8.96e-4 -0.08154,-0.0082 -0.111363,-0.01613 z m 0.287375,-1.868882 c 0.124105,-0.05185 0.15119,-0.161102 0.07301,-0.294501 -0.05336,-0.09105 -0.04733,-0.129818 0.02704,-0.17375 0.05898,-0.03484 0.08179,-0.08423 0.06431,-0.139278 -0.0334,-0.105227 -0.291483,-0.122804 -0.415397,-0.02829 -0.221306,0.168798 -0.162459,0.565418 0.09542,0.643155 0.07115,0.02145 0.08869,0.02062 0.155604,-0.0073 z"
     id="path877" />
  <path
     style="fill:#000000;fill-opacity:0;stroke-width:0.0180723"
     d="m 12.114458,12.723201 c -0.02982,-0.008 -0.131476,-0.03261 -0.225904,-0.05474 -0.532326,-0.124773 -1.039679,-0.338343 -1.381688,-0.58162 -0.212908,-0.151444 -0.422617,-0.374095 -0.499595,-0.530427 -0.061385,-0.124664 -0.061488,-0.12531 -0.061488,-0.387476 0,-0.262584 4.6e-6,-0.262613 0.062052,-0.388881 0.08072,-0.164261 0.24673,-0.328011 0.553251,-0.54571 0.530519,-0.3767884 0.71237,-0.5839753 0.791216,-0.9014497 C 11.44067,8.9770762 11.399713,8.7853831 11.0939,8.123494 10.827246,7.5463578 10.772932,7.3533674 10.71267,6.7688931 10.66693,6.3252761 10.632504,6.2071945 10.511653,6.0794131 10.398459,5.9597264 10.31607,5.9272337 9.9909639,5.8740625 9.5261897,5.7980487 9.2332218,5.6686787 9.0004417,5.4366643 8.8145249,5.251359 8.7264284,5.0248139 8.7260401,4.7310249 8.7259124,4.6343237 8.7311736,4.6216025 8.8082576,4.5322298 8.9972372,4.3131231 9.8389982,3.5487085 11.183735,2.3750263 c 1.181459,-1.0311742 2.040849,-1.76791181 2.05072,-1.75804087 0.0082,0.008186 -0.442023,0.54910597 -0.764893,0.91900907 -0.854785,0.979302 -1.730699,1.8611009 -2.7672427,2.7858333 -0.3775417,0.3368165 -0.4335059,0.4064191 -0.4338822,0.539618 -3.034e-4,0.107407 0.047501,0.1823398 0.1661701,0.2604669 0.1547019,0.10185 0.3553191,0.1614039 0.54887,0.1629339 l 0.1641998,0.0013 0.08461,-0.069237 c 0.08762,-0.071705 0.270443,-0.334487 0.44847,-0.6446181 0.130209,-0.2268302 0.994985,-1.556189 1.005496,-1.5456776 0.0045,0.0045 -0.188674,0.3587404 -0.429283,0.787195 -0.240608,0.4284545 -0.453407,0.8252183 -0.472887,0.8816973 -0.04697,0.1361808 -0.06016,0.282931 -0.03441,0.3828094 0.01153,0.044729 0.02791,0.1191715 0.0364,0.1654279 0.02021,0.1101481 0.05001,0.1628814 0.172096,0.3044516 0.247604,0.2871274 0.352565,0.5696709 0.433028,1.1656626 0.105628,0.7823939 0.334428,1.2359491 1.112239,2.2048193 0.286575,0.3569682 0.39631,0.5139869 0.490796,0.7022729 0.144136,0.2872241 0.165045,0.3901451 0.165729,0.8157991 5.6e-4,0.349056 -0.0014,0.368601 -0.05585,0.570196 -0.1036,0.383234 -0.182383,0.55027 -0.494532,1.048504 -0.20024,0.319611 -0.296557,0.507703 -0.314566,0.614299 -0.01112,0.06584 -0.01635,0.07109 -0.06918,0.06959 -0.03143,-8.96e-4 -0.08154,-0.0082 -0.111363,-0.01613 z m 0.287375,-1.868882 c 0.124105,-0.05185 0.15119,-0.161102 0.07301,-0.294501 -0.05336,-0.09105 -0.04733,-0.129818 0.02704,-0.17375 0.05898,-0.03484 0.08179,-0.08423 0.06431,-0.139278 -0.0334,-0.105227 -0.291483,-0.122804 -0.415397,-0.02829 -0.221306,0.168798 -0.162459,0.565418 0.09542,0.643155 0.07115,0.02145 0.08869,0.02062 0.155604,-0.0073 z"
     id="path879" />
  <path
     style="fill:#000000;fill-opacity:0;stroke-width:0.0180723"
     d="m 12.114458,12.723201 c -0.02982,-0.008 -0.131476,-0.03261 -0.225904,-0.05474 -0.532326,-0.124773 -1.039679,-0.338343 -1.381688,-0.58162 -0.212908,-0.151444 -0.422617,-0.374095 -0.499595,-0.530427 -0.061385,-0.124664 -0.061488,-0.12531 -0.061488,-0.387476 0,-0.262584 4.6e-6,-0.262613 0.062052,-0.388881 0.08072,-0.164261 0.24673,-0.328011 0.553251,-0.54571 0.530519,-0.3767884 0.71237,-0.5839753 0.791216,-0.9014497 C 11.44067,8.9770762 11.399713,8.7853831 11.0939,8.123494 10.827246,7.5463578 10.772932,7.3533674 10.71267,6.7688931 10.66693,6.3252761 10.632504,6.2071945 10.511653,6.0794131 10.398459,5.9597264 10.31607,5.9272337 9.9909639,5.8740625 9.5261897,5.7980487 9.2332218,5.6686787 9.0004417,5.4366643 8.8145249,5.251359 8.7264284,5.0248139 8.7260401,4.7310249 8.7259124,4.6343237 8.7311736,4.6216025 8.8082576,4.5322298 8.9972372,4.3131231 9.8389982,3.5487085 11.183735,2.3750263 c 1.181459,-1.0311742 2.040849,-1.76791181 2.05072,-1.75804087 0.0082,0.008186 -0.442023,0.54910597 -0.764893,0.91900907 -0.854785,0.979302 -1.730699,1.8611009 -2.7672427,2.7858333 -0.3775417,0.3368165 -0.4335059,0.4064191 -0.4338822,0.539618 -3.034e-4,0.107407 0.047501,0.1823398 0.1661701,0.2604669 0.1547019,0.10185 0.3553191,0.1614039 0.54887,0.1629339 l 0.1641998,0.0013 0.08461,-0.069237 c 0.08762,-0.071705 0.270443,-0.334487 0.44847,-0.6446181 0.130209,-0.2268302 0.994985,-1.556189 1.005496,-1.5456776 0.0045,0.0045 -0.188674,0.3587404 -0.429283,0.787195 -0.240608,0.4284545 -0.453407,0.8252183 -0.472887,0.8816973 -0.04697,0.1361808 -0.06016,0.282931 -0.03441,0.3828094 0.01153,0.044729 0.02791,0.1191715 0.0364,0.1654279 0.02021,0.1101481 0.05001,0.1628814 0.172096,0.3044516 0.247604,0.2871274 0.352565,0.5696709 0.433028,1.1656626 0.105628,0.7823939 0.334428,1.2359491 1.112239,2.2048193 0.286575,0.3569682 0.39631,0.5139869 0.490796,0.7022729 0.144136,0.2872241 0.165045,0.3901451 0.165729,0.8157991 5.6e-4,0.349056 -0.0014,0.368601 -0.05585,0.570196 -0.1036,0.383234 -0.182383,0.55027 -0.494532,1.048504 -0.20024,0.319611 -0.296557,0.507703 -0.314566,0.614299 -0.01112,0.06584 -0.01635,0.07109 -0.06918,0.06959 -0.03143,-8.96e-4 -0.08154,-0.0082 -0.111363,-0.01613 z m 0.287375,-1.868882 c 0.124105,-0.05185 0.15119,-0.161102 0.07301,-0.294501 -0.05336,-0.09105 -0.04733,-0.129818 0.02704,-0.17375 0.05898,-0.03484 0.08179,-0.08423 0.06431,-0.139278 -0.0334,-0.105227 -0.291483,-0.122804 -0.415397,-0.02829 -0.221306,0.168798 -0.162459,0.565418 0.09542,0.643155 0.07115,0.02145 0.08869,0.02062 0.155604,-0.0073 z"
     id="path881" />
  <path
     style="fill:#000000;fill-opacity:0;stroke-width:0.0180723"
     d="m 12.114458,12.723201 c -0.02982,-0.008 -0.131476,-0.03261 -0.225904,-0.05474 -0.532326,-0.124773 -1.039679,-0.338343 -1.381688,-0.58162 -0.212908,-0.151444 -0.422617,-0.374095 -0.499595,-0.530427 -0.061385,-0.124664 -0.061488,-0.12531 -0.061488,-0.387476 0,-0.262584 4.6e-6,-0.262613 0.062052,-0.388881 0.08072,-0.164261 0.24673,-0.328011 0.553251,-0.54571 0.530519,-0.3767884 0.71237,-0.5839753 0.791216,-0.9014497 C 11.44067,8.9770762 11.399713,8.7853831 11.0939,8.123494 10.827246,7.5463578 10.772932,7.3533674 10.71267,6.7688931 10.66693,6.3252761 10.632504,6.2071945 10.511653,6.0794131 10.398459,5.9597264 10.31607,5.9272337 9.9909639,5.8740625 9.5261897,5.7980487 9.2332218,5.6686787 9.0004417,5.4366643 8.8145249,5.251359 8.7264284,5.0248139 8.7260401,4.7310249 8.7259124,4.6343237 8.7311736,4.6216025 8.8082576,4.5322298 8.9972372,4.3131231 9.8389982,3.5487085 11.183735,2.3750263 c 1.181459,-1.0311742 2.040849,-1.76791181 2.05072,-1.75804087 0.0082,0.008186 -0.442023,0.54910597 -0.764893,0.91900907 -0.854785,0.979302 -1.730699,1.8611009 -2.7672427,2.7858333 -0.3775417,0.3368165 -0.4335059,0.4064191 -0.4338822,0.539618 -3.034e-4,0.107407 0.047501,0.1823398 0.1661701,0.2604669 0.1547019,0.10185 0.3553191,0.1614039 0.54887,0.1629339 l 0.1641998,0.0013 0.08461,-0.069237 c 0.08762,-0.071705 0.270443,-0.334487 0.44847,-0.6446181 0.130209,-0.2268302 0.994985,-1.556189 1.005496,-1.5456776 0.0045,0.0045 -0.188674,0.3587404 -0.429283,0.787195 -0.240608,0.4284545 -0.453407,0.8252183 -0.472887,0.8816973 -0.04697,0.1361808 -0.06016,0.282931 -0.03441,0.3828094 0.01153,0.044729 0.02791,0.1191715 0.0364,0.1654279 0.02021,0.1101481 0.05001,0.1628814 0.172096,0.3044516 0.247604,0.2871274 0.352565,0.5696709 0.433028,1.1656626 0.105628,0.7823939 0.334428,1.2359491 1.112239,2.2048193 0.286575,0.3569682 0.39631,0.5139869 0.490796,0.7022729 0.144136,0.2872241 0.165045,0.3901451 0.165729,0.8157991 5.6e-4,0.349056 -0.0014,0.368601 -0.05585,0.570196 -0.1036,0.383234 -0.182383,0.55027 -0.494532,1.048504 -0.20024,0.319611 -0.296557,0.507703 -0.314566,0.614299 -0.01112,0.06584 -0.01635,0.07109 -0.06918,0.06959 -0.03143,-8.96e-4 -0.08154,-0.0082 -0.111363,-0.01613 z m 0.287375,-1.868882 c 0.124105,-0.05185 0.15119,-0.161102 0.07301,-0.294501 -0.05336,-0.09105 -0.04733,-0.129818 0.02704,-0.17375 0.05898,-0.03484 0.08179,-0.08423 0.06431,-0.139278 -0.0334,-0.105227 -0.291483,-0.122804 -0.415397,-0.02829 -0.221306,0.168798 -0.162459,0.565418 0.09542,0.643155 0.07115,0.02145 0.08869,0.02062 0.155604,-0.0073 z"
     id="path883" />
  <path
     style="fill:#000000;fill-opacity:0;stroke-width:0.0180723"
     d="m 12.114458,12.723201 c -0.02982,-0.008 -0.131476,-0.03261 -0.225904,-0.05474 -0.532326,-0.124773 -1.039679,-0.338343 -1.381688,-0.58162 -0.212908,-0.151444 -0.422617,-0.374095 -0.499595,-0.530427 -0.061385,-0.124664 -0.061488,-0.12531 -0.061488,-0.387476 0,-0.262584 4.6e-6,-0.262613 0.062052,-0.388881 0.08072,-0.164261 0.24673,-0.328011 0.553251,-0.54571 0.530519,-0.3767884 0.71237,-0.5839753 0.791216,-0.9014497 C 11.44067,8.9770762 11.399713,8.7853831 11.0939,8.123494 10.827246,7.5463578 10.772932,7.3533674 10.71267,6.7688931 10.66693,6.3252761 10.632504,6.2071945 10.511653,6.0794131 10.398459,5.9597264 10.31607,5.9272337 9.9909639,5.8740625 9.5261897,5.7980487 9.2332218,5.6686787 9.0004417,5.4366643 8.8145249,5.251359 8.7264284,5.0248139 8.7260401,4.7310249 8.7259124,4.6343237 8.7311736,4.6216025 8.8082576,4.5322298 8.9972372,4.3131231 9.8389982,3.5487085 11.183735,2.3750263 c 1.181459,-1.0311742 2.040849,-1.76791181 2.05072,-1.75804087 0.0082,0.008186 -0.442023,0.54910597 -0.764893,0.91900907 -0.854785,0.979302 -1.730699,1.8611009 -2.7672427,2.7858333 -0.3775417,0.3368165 -0.4335059,0.4064191 -0.4338822,0.539618 -3.034e-4,0.107407 0.047501,0.1823398 0.1661701,0.2604669 0.1547019,0.10185 0.3553191,0.1614039 0.54887,0.1629339 l 0.1641998,0.0013 0.08461,-0.069237 c 0.08762,-0.071705 0.270443,-0.334487 0.44847,-0.6446181 0.130209,-0.2268302 0.994985,-1.556189 1.005496,-1.5456776 0.0045,0.0045 -0.188674,0.3587404 -0.429283,0.787195 -0.240608,0.4284545 -0.453407,0.8252183 -0.472887,0.8816973 -0.04697,0.1361808 -0.06016,0.282931 -0.03441,0.3828094 0.01153,0.044729 0.02791,0.1191715 0.0364,0.1654279 0.02021,0.1101481 0.05001,0.1628814 0.172096,0.3044516 0.247604,0.2871274 0.352565,0.5696709 0.433028,1.1656626 0.105628,0.7823939 0.334428,1.2359491 1.112239,2.2048193 0.286575,0.3569682 0.39631,0.5139869 0.490796,0.7022729 0.144136,0.2872241 0.165045,0.3901451 0.165729,0.8157991 5.6e-4,0.349056 -0.0014,0.368601 -0.05585,0.570196 -0.1036,0.383234 -0.182383,0.55027 -0.494532,1.048504 -0.20024,0.319611 -0.296557,0.507703 -0.314566,0.614299 -0.01112,0.06584 -0.01635,0.07109 -0.06918,0.06959 -0.03143,-8.96e-4 -0.08154,-0.0082 -0.111363,-0.01613 z m 0.287375,-1.868882 c 0.124105,-0.05185 0.15119,-0.161102 0.07301,-0.294501 -0.05336,-0.09105 -0.04733,-0.129818 0.02704,-0.17375 0.05898,-0.03484 0.08179,-0.08423 0.06431,-0.139278 -0.0334,-0.105227 -0.291483,-0.122804 -0.415397,-0.02829 -0.221306,0.168798 -0.162459,0.565418 0.09542,0.643155 0.07115,0.02145 0.08869,0.02062 0.155604,-0.0073 z"
     id="path885" />
  <path
     style="fill:#000000;fill-opacity:0;stroke-width:0.0180723"
     d="m 12.114458,12.723201 c -0.02982,-0.008 -0.131476,-0.03261 -0.225904,-0.05474 -0.532326,-0.124773 -1.039679,-0.338343 -1.381688,-0.58162 -0.212908,-0.151444 -0.422617,-0.374095 -0.499595,-0.530427 -0.061385,-0.124664 -0.061488,-0.12531 -0.061488,-0.387476 0,-0.262584 4.6e-6,-0.262613 0.062052,-0.388881 0.08072,-0.164261 0.24673,-0.328011 0.553251,-0.54571 0.530519,-0.3767884 0.71237,-0.5839753 0.791216,-0.9014497 C 11.44067,8.9770762 11.399713,8.7853831 11.0939,8.123494 10.827246,7.5463578 10.772932,7.3533674 10.71267,6.7688931 10.66693,6.3252761 10.632504,6.2071945 10.511653,6.0794131 10.398459,5.9597264 10.31607,5.9272337 9.9909639,5.8740625 9.5261897,5.7980487 9.2332218,5.6686787 9.0004417,5.4366643 8.8145249,5.251359 8.7264284,5.0248139 8.7260401,4.7310249 8.7259124,4.6343237 8.7311736,4.6216025 8.8082576,4.5322298 8.9972372,4.3131231 9.8389982,3.5487085 11.183735,2.3750263 c 1.181459,-1.0311742 2.040849,-1.76791181 2.05072,-1.75804087 0.0082,0.008186 -0.442023,0.54910597 -0.764893,0.91900907 -0.854785,0.979302 -1.730699,1.8611009 -2.7672427,2.7858333 -0.3775417,0.3368165 -0.4335059,0.4064191 -0.4338822,0.539618 -3.034e-4,0.107407 0.047501,0.1823398 0.1661701,0.2604669 0.1547019,0.10185 0.3553191,0.1614039 0.54887,0.1629339 l 0.1641998,0.0013 0.08461,-0.069237 c 0.08762,-0.071705 0.270443,-0.334487 0.44847,-0.6446181 0.130209,-0.2268302 0.994985,-1.556189 1.005496,-1.5456776 0.0045,0.0045 -0.188674,0.3587404 -0.429283,0.787195 -0.240608,0.4284545 -0.453407,0.8252183 -0.472887,0.8816973 -0.04697,0.1361808 -0.06016,0.282931 -0.03441,0.3828094 0.01153,0.044729 0.02791,0.1191715 0.0364,0.1654279 0.02021,0.1101481 0.05001,0.1628814 0.172096,0.3044516 0.247604,0.2871274 0.352565,0.5696709 0.433028,1.1656626 0.105628,0.7823939 0.334428,1.2359491 1.112239,2.2048193 0.286575,0.3569682 0.39631,0.5139869 0.490796,0.7022729 0.144136,0.2872241 0.165045,0.3901451 0.165729,0.8157991 5.6e-4,0.349056 -0.0014,0.368601 -0.05585,0.570196 -0.1036,0.383234 -0.182383,0.55027 -0.494532,1.048504 -0.20024,0.319611 -0.296557,0.507703 -0.314566,0.614299 -0.01112,0.06584 -0.01635,0.07109 -0.06918,0.06959 -0.03143,-8.96e-4 -0.08154,-0.0082 -0.111363,-0.01613 z m 0.287375,-1.868882 c 0.124105,-0.05185 0.15119,-0.161102 0.07301,-0.294501 -0.05336,-0.09105 -0.04733,-0.129818 0.02704,-0.17375 0.05898,-0.03484 0.08179,-0.08423 0.06431,-0.139278 -0.0334,-0.105227 -0.291483,-0.122804 -0.415397,-0.02829 -0.221306,0.168798 -0.162459,0.565418 0.09542,0.643155 0.07115,0.02145 0.08869,0.02062 0.155604,-0.0073 z"
     id="path887" />
  <path
     style="fill:#000000;fill-opacity:0;stroke-width:0.0180723"
     d="M 0.96312655,6.1129518 C 0.99706564,5.8301736 1.2328347,5.2872582 1.4863622,4.9080748 1.6168361,4.7129342 1.8642857,4.4006024 1.888415,4.4006024 c 0.00662,0 0.030078,0.073193 0.052121,0.1626506 0.1453638,0.589933 0.4187449,0.9020998 0.6765735,0.7725624 0.073013,-0.036683 0.1392467,-0.1274585 0.155253,-0.212779 0.00859,-0.045795 -0.00379,-0.092858 -0.053242,-0.2023833 C 2.6151108,4.6902943 2.5946343,4.5704161 2.6040512,4.246988 2.6091922,4.0704199 2.6238649,3.9178675 2.6437427,3.8343172 L 2.6752781,3.7017669 2.7964743,3.6233655 C 3.2384204,3.3374722 3.7627567,3.1254822 4.3079341,3.0122802 c 0.4009303,-0.08325 0.516915,-0.093608 1.0474876,-0.093548 0.4407432,5.06e-5 0.5426199,0.00559 0.7896958,0.042971 L 6.4287893,3.0046167 6.7776476,2.6527328 C 7.2304598,2.1959936 7.4796344,2.003663 7.8716014,1.8083422 8.0957646,1.6966395 8.3191069,1.6182899 8.5417757,1.5732415 c 0.2221327,-0.04494 0.6335272,-0.082611 0.7014991,-0.064236 0.043416,0.011737 0.022923,0.019305 -0.1252941,0.046273 C 8.4616067,1.6747025 7.9416286,1.9456464 7.4183639,2.4408946 7.1923837,2.6547754 6.9961943,2.8834081 6.5662651,3.4339036 5.6584177,4.5963408 5.3182661,4.8929723 4.620752,5.1305011 4.1630984,5.2863488 3.7483284,5.3501546 2.8433735,5.4039224 2.4154346,5.4293485 2.0872028,5.4694758 1.8825825,5.521382 1.5237619,5.6124043 1.2347708,5.8147415 1.0359937,6.1141216 0.998473,6.1706316 0.9639223,6.2168675 0.9592144,6.2168675 c -0.004708,0 -0.002947,-0.046762 0.003912,-0.1039157 z"
     id="path889" />
  <path
     style="fill:#000000;fill-opacity:0;stroke-width:0.0180723"
     d="M 0.96312655,6.1129518 C 0.99706564,5.8301736 1.2328347,5.2872582 1.4863622,4.9080748 1.6168361,4.7129342 1.8642857,4.4006024 1.888415,4.4006024 c 0.00662,0 0.030078,0.073193 0.052121,0.1626506 0.1453638,0.589933 0.4187449,0.9020998 0.6765735,0.7725624 0.073013,-0.036683 0.1392467,-0.1274585 0.155253,-0.212779 0.00859,-0.045795 -0.00379,-0.092858 -0.053242,-0.2023833 C 2.6151108,4.6902943 2.5946343,4.5704161 2.6040512,4.246988 2.6091922,4.0704199 2.6238649,3.9178675 2.6437427,3.8343172 L 2.6752781,3.7017669 2.7964743,3.6233655 C 3.2384204,3.3374722 3.7627567,3.1254822 4.3079341,3.0122802 c 0.4009303,-0.08325 0.516915,-0.093608 1.0474876,-0.093548 0.4407432,5.06e-5 0.5426199,0.00559 0.7896958,0.042971 L 6.4287893,3.0046167 6.7776476,2.6527328 C 7.2304598,2.1959936 7.4796344,2.003663 7.8716014,1.8083422 8.0957646,1.6966395 8.3191069,1.6182899 8.5417757,1.5732415 c 0.2221327,-0.04494 0.6335272,-0.082611 0.7014991,-0.064236 0.043416,0.011737 0.022923,0.019305 -0.1252941,0.046273 C 8.4616067,1.6747025 7.9416286,1.9456464 7.4183639,2.4408946 7.1923837,2.6547754 6.9961943,2.8834081 6.5662651,3.4339036 5.6584177,4.5963408 5.3182661,4.8929723 4.620752,5.1305011 4.1630984,5.2863488 3.7483284,5.3501546 2.8433735,5.4039224 2.4154346,5.4293485 2.0872028,5.4694758 1.8825825,5.521382 1.5237619,5.6124043 1.2347708,5.8147415 1.0359937,6.1141216 0.998473,6.1706316 0.9639223,6.2168675 0.9592144,6.2168675 c -0.004708,0 -0.002947,-0.046762 0.003912,-0.1039157 z"
     id="path891" />
  <path
     style="fill:#000000;fill-opacity:0;stroke-width:0.0180723"
     d="M 0.29148203,9.910736 C 0.19069112,9.7156007 0.09639529,9.4553104 0.05975433,9.2710843 0.01387754,9.0404217 0.00289212,8.4777432 0.04009321,8.264032 0.21425818,7.2634975 0.92645842,6.5344474 2.0662651,6.1899234 2.2616663,6.1308603 2.7697663,6.0203611 2.9789157,5.9914444 l 0.081325,-0.011244 -0.072289,0.034456 C 2.8219611,6.093774 2.759817,6.2652219 2.8262285,6.460832 2.8416485,6.506249 2.9923193,6.7972716 3.1610536,7.107548 L 3.4678432,7.6716867 3.3544034,7.7235579 C 3.2920117,7.752087 3.0661145,7.8468633 2.8524096,7.9341717 1.4556793,8.5048016 0.94683749,8.8001937 0.65421881,9.210262 0.50902501,9.4137329 0.3969929,9.7168625 0.3933081,9.9162183 0.39057275,10.064207 0.37018548,10.063109 0.29148203,9.910736 Z"
     id="path893" />
  <path
     style="fill:#000000;fill-opacity:0;stroke-width:0.0180723"
     d="M 6.2042242,12.560646 C 6.1740774,12.541323 6.1319457,12.50189 6.1105978,12.473015 6.0892499,12.444141 5.8180282,11.953837 5.5078828,11.383451 5.1977375,10.813065 4.4841528,9.5006024 3.9221393,8.4668675 3.3601257,7.4331325 2.8815823,6.5426205 2.8587097,6.4879518 2.7724829,6.2818586 2.8334204,6.100509 3.0150602,6.0226534 c 0.089144,-0.03821 1.628445,-0.1209077 1.769172,-0.095048 0.2024727,0.037206 0.4156232,0.1673976 0.5398755,0.3297536 0.093634,0.1223484 1.9865896,3.552125 2.0298019,3.6777235 0.057686,0.1676665 0.078231,0.3701525 0.054656,0.5386705 -0.028233,0.201815 -0.048498,0.254638 -0.3498034,0.911789 -0.1435583,0.313103 -0.3003474,0.658735 -0.3484202,0.768072 -0.1053139,0.239528 -0.186557,0.368681 -0.2586273,0.411145 -0.070462,0.04152 -0.1791175,0.03971 -0.2474909,-0.0041 z"
     id="path895" />
  <path
     style="fill:#000000;fill-opacity:0;stroke-width:0.0180723"
     d="M 6.2042242,12.560646 C 6.1740774,12.541323 6.1319457,12.50189 6.1105978,12.473015 6.0892499,12.444141 5.8180282,11.953837 5.5078828,11.383451 5.1977375,10.813065 4.4841528,9.5006024 3.9221393,8.4668675 3.3601257,7.4331325 2.8815823,6.5426205 2.8587097,6.4879518 2.7724829,6.2818586 2.8334204,6.100509 3.0150602,6.0226534 c 0.089144,-0.03821 1.628445,-0.1209077 1.769172,-0.095048 0.2024727,0.037206 0.4156232,0.1673976 0.5398755,0.3297536 0.093634,0.1223484 1.9865896,3.552125 2.0298019,3.6777235 0.057686,0.1676665 0.078231,0.3701525 0.054656,0.5386705 -0.028233,0.201815 -0.048498,0.254638 -0.3498034,0.911789 -0.1435583,0.313103 -0.3003474,0.658735 -0.3484202,0.768072 -0.1053139,0.239528 -0.186557,0.368681 -0.2586273,0.411145 -0.070462,0.04152 -0.1791175,0.03971 -0.2474909,-0.0041 z"
     id="path897" />
  <path
     style="fill:#d40000;fill-opacity:1;stroke-width:0.0180723"
     d="M 1.2917281,5.3809588 C 1.2683071,5.3040015 1.2455973,5.097475 1.2353475,4.868223 1.2208902,4.5448658 1.2147539,4.5121462 1.1620971,4.4776442 1.1206562,4.4504911 1.1134438,4.4514853 1.0401159,4.4944583 0.95332616,4.5453205 0.54305556,4.8667123 0.41931516,4.9807723 0.17580416,5.2052329 0.47589606,4.8501545 0.93674696,4.3685301 1.0808735,4.2179069 1.2250768,4.0510249 1.2571988,3.9976811 1.3753085,3.8015406 1.4498195,3.3191962 1.4107655,3.003572 1.3992995,2.9109072 1.3853632,2.8147591 1.379796,2.7899097 c -0.00557,-0.024849 0.00691,-0.00858 0.027728,0.036145 0.061816,0.1328188 0.1060737,0.3557442 0.1342461,0.6761961 0.014581,0.1658503 0.031264,0.3092373 0.037074,0.3186378 0.00581,0.0094 -0.042761,0.085382 -0.1079353,0.1688465 -0.065174,0.083465 -0.1184986,0.157142 -0.1184986,0.1637265 0,0.00658 0.084596,-0.062963 0.1879904,-0.1545495 0.1997864,-0.1769703 0.2062661,-0.1804029 0.5936361,-0.314473 0.2074229,-0.07179 0.2304217,-0.076415 0.2304217,-0.04634 0,0.023803 -0.057024,0.064954 -0.1983217,0.1431192 -0.4930618,0.2727569 -0.6483671,0.4232895 -0.7304794,0.7080311 -0.031228,0.108291 -0.064777,0.440352 -0.06502,0.6435669 -1.662e-4,0.1381582 -0.057504,0.3184721 -0.078908,0.2481431 z"
     id="path920" />
  <path
     style="fill:#d40000;fill-opacity:1;stroke-width:0.0180723"
     d="m 3.6574897,3.2100903 c -0.01476,-0.3298603 -0.02047,-0.3602187 -0.07443,-0.3955724 -0.0405,-0.026536 -0.04834,-0.025424 -0.120417,0.017071 -0.0424,0.025 -0.146225,0.099853 -0.230713,0.1663387 -0.154656,0.1217039 -0.221196,0.1593091 -0.264777,0.1496389 -0.01301,-0.00289 0.128673,-0.1652493 0.314842,-0.3608075 0.186169,-0.1955582 0.364771,-0.3990207 0.396893,-0.4521388 0.118023,-0.1951678 0.192634,-0.6779628 0.153566,-0.9936989 -0.01147,-0.092665 -0.0254,-0.1888129 -0.03097,-0.2136623 -0.0056,-0.024849 0.0069,-0.00858 0.02773,0.036145 0.06188,0.132954 0.106082,0.3558399 0.134359,0.6774784 0.01464,0.1665556 0.03622,0.314398 0.04796,0.3285387 0.02764,0.033305 0.07776,0.022081 0.342071,-0.076612 0.206137,-0.076971 0.6775,-0.2251282 0.712663,-0.2240023 0.0099,3.182e-4 -0.108091,0.063344 -0.262291,0.1400578 -0.35474,0.1764808 -0.574803,0.311752 -0.709082,0.4358675 -0.195206,0.1804306 -0.256383,0.3385912 -0.287674,0.7437147 -0.0191,0.2473097 -0.0235,0.2681507 -0.05851,0.2775521 -0.07829,0.021017 -0.0789,0.019304 -0.09122,-0.2559086 z"
     id="path922" />
</svg>
