<?xml version="1.0" standalone="no"?>
<!DOCTYPE svg PUBLIC "-//W3C//DTD SVG 20010904//EN"
 "http://www.w3.org/TR/2001/REC-SVG-20010904/DTD/svg10.dtd">
<svg version="1.0" xmlns="http://www.w3.org/2000/svg"
 width="144.000000pt" height="154.000000pt" viewBox="0 0 144.000000 154.000000"
 preserveAspectRatio="xMidYMid meet">

<g transform="translate(0.000000,154.000000) scale(0.100000,-0.100000)"
fill="#000000" stroke="none">
<path d="M832 1394 c-28 -14 -74 -46 -101 -72 l-50 -47 -98 0 c-54 0 -115 -4
-136 -8 -37 -8 -38 -7 -32 15 6 23 43 61 81 85 16 11 15 11 -9 3 -42 -15 -57
-12 -57 10 0 11 -4 20 -10 20 -5 0 -10 -11 -10 -24 0 -34 -33 -71 -81 -90 -23
-9 -43 -15 -45 -14 -1 2 -7 26 -12 53 l-10 50 -1 -43 c-1 -49 -12 -75 -50
-115 l-26 -28 -6 28 c-5 28 -6 28 -17 -11 -6 -22 -28 -58 -49 -80 -33 -34 -34
-37 -10 -22 15 9 32 14 37 11 15 -9 12 -68 -5 -108 -23 -55 -18 -62 20 -29 38
34 52 37 200 52 174 16 212 38 334 189 92 114 127 145 196 177 40 19 45 24 24
24 -14 0 -48 -12 -77 -26z m-434 -125 c2 -9 -19 -25 -54 -42 l-56 -28 4 -62
c3 -34 7 -68 9 -75 2 -8 -4 -19 -14 -25 -15 -10 -22 -8 -38 12 -11 14 -23 38
-26 54 l-6 30 -29 -34 -30 -34 6 35 c4 22 18 46 38 65 l33 29 12 -49 11 -50 1
57 c1 59 27 106 61 111 8 2 24 8 35 15 24 14 39 11 43 -9z m-158 -63 c0 -2 -7
-7 -16 -10 -8 -3 -12 -2 -9 4 6 10 25 14 25 6z"/>
<path d="M925 1362 c-44 -27 -52 -40 -74 -121 -11 -40 -29 -89 -41 -107 -26
-45 -8 -54 48 -25 65 33 118 125 124 216 4 58 -9 66 -57 37z"/>
<path d="M1059 1214 c-107 -71 -139 -103 -139 -136 0 -44 47 -84 116 -98 64
-14 79 -31 88 -109 4 -30 20 -86 37 -124 47 -112 36 -155 -59 -221 -102 -70
-68 -172 74 -226 99 -37 100 -36 151 60 43 81 45 87 41 156 -3 69 -5 74 -60
145 -80 106 -97 137 -114 220 -8 41 -22 85 -29 99 -50 89 -50 87 -10 164 45
86 37 80 -30 -22 -55 -84 -83 -99 -131 -67 -31 20 -30 38 4 61 36 24 132 115
132 125 0 16 -17 9 -71 -27z m247 -710 c1 -33 -14 -48 -33 -32 -17 13 -17 55
0 61 22 9 32 1 33 -29z"/>
<path d="M525 1013 c-24 -13 -89 -30 -165 -43 -199 -34 -287 -88 -325 -199
-19 -57 -19 -104 1 -171 l16 -54 13 38 c19 54 65 97 143 134 37 17 110 51 163
75 145 67 208 136 197 217 l-3 26 -40 -23z"/>
<path d="M734 948 c-9 -15 87 -388 100 -388 15 0 76 100 76 123 0 39 -54 233
-69 248 -19 19 -98 32 -107 17z"/>
<path d="M929 926 c-7 -8 25 -143 36 -154 4 -4 18 7 31 23 31 39 70 112 63
119 -9 9 -123 19 -130 12z"/>
<path d="M435 735 c-22 -56 -15 -105 21 -152 38 -50 92 -70 219 -82 61 -6 121
-13 135 -16 24 -6 23 -5 -4 10 -15 9 -80 28 -143 41 -85 17 -125 31 -150 50
-46 35 -67 85 -60 146 4 27 4 48 2 48 -2 0 -11 -20 -20 -45z"/>
<path d="M282 692 c-115 -66 -150 -97 -178 -156 -27 -57 -31 -147 -11 -203 19
-49 70 -116 107 -137 33 -19 33 -19 25 0 -4 10 -10 40 -12 65 -6 57 14 107 96
234 32 49 63 105 69 124 16 46 16 121 0 121 -7 0 -50 -22 -96 -48z"/>
<path d="M663 395 c-66 -33 -88 -69 -112 -178 -9 -47 -25 -97 -34 -111 -19
-28 -69 -42 -114 -32 l-28 6 25 -15 c14 -8 41 -14 61 -15 57 0 99 35 144 121
55 104 55 104 98 129 64 38 137 9 137 -56 0 -59 -77 -97 -113 -56 -22 24 -21
55 1 75 22 20 43 22 62 5 8 -7 7 -4 -2 6 -14 16 -23 18 -50 10 -61 -18 -64
-104 -4 -132 45 -22 87 -7 155 55 50 44 76 60 124 73 l61 17 -49 36 c-72 53
-147 80 -235 84 -66 4 -81 1 -127 -22z"/>
</g>
</svg>
