<?xml version="1.0" encoding="UTF-8" standalone="no"?>
<svg
   xmlns:dc="http://purl.org/dc/elements/1.1/"
   xmlns:cc="http://creativecommons.org/ns#"
   xmlns:rdf="http://www.w3.org/1999/02/22-rdf-syntax-ns#"
   xmlns:svg="http://www.w3.org/2000/svg"
   xmlns="http://www.w3.org/2000/svg"
   xml:space="preserve"
   style="enable-background:new 0 0 168.3 193.8;"
   viewBox="0 0 168.3 193.8"
   y="0px"
   x="0px"
   id="Layer_1"
   version="1.1"><metadata
   id="metadata27"><rdf:RDF><cc:Work
       rdf:about=""><dc:format>image/svg+xml</dc:format><dc:type
         rdf:resource="http://purl.org/dc/dcmitype/StillImage" /><dc:title></dc:title></cc:Work></rdf:RDF></metadata><defs
   id="defs25" />
<style
   id="style2"
   type="text/css">
	.st0{fill:#FF007A;}
	.st1{fill-rule:evenodd;clip-rule:evenodd;fill:#FF007A;}
</style>









<style
   type="text/css"
   id="style910">
	.st0{fill-rule:evenodd;clip-rule:evenodd;fill:#E84142;}
	.st1{fill:#FFFFFF;}
</style><path
   style="fill:#d40000;fill-opacity:1;stroke-width:1.30405"
   d="m 129.12693,118.74326 c -2.15786,-2.21002 -5.07696,-6.77834 -6.48689,-10.15193 -2.47679,-5.92611 -5.79045,-8.875772 -8.41591,-7.49129 -0.69603,0.36677 -4.53972,4.71912 -8.54157,9.67117 -4.00187,4.95204 -7.389669,8.73212 -7.528462,8.39999 -0.138828,-0.33173 3.637282,-7.00166 8.391282,-14.82138 4.75399,-7.819664 9.01181,-16.290112 9.46187,-18.823187 0.45001,-2.533101 -0.49038,-8.843216 -2.08989,-14.022466 -3.36887,-10.908827 -1.35882,-10.583035 5.39637,0.874748 2.73981,4.647206 5.34158,7.540384 6.51046,7.239844 1.07089,-0.274905 6.67039,-4.56368 12.44346,-9.529547 14.06287,-12.0966 15.17275,-12.403421 4.74217,-1.311094 -19.52024,20.758809 -20.39768,23.300096 -14.26686,41.321772 l 4.30739,12.66157 z"
   id="path35" /><g
   id="g916"
   transform="matrix(0.96792133,0.50236597,-0.27666404,1.9217669,-285.72024,-491.21379)"
   style="fill:#d40000"><path
     id="path914"
     d="m 441.88068,181.31006 c 3.40583,3.12816 7.36001,2.08541 8.85508,-2.33517 l 9.21315,-27.91193 c 1.49507,-4.42059 -1.28923,-6.97097 -6.19017,-5.67855 l -30.74217,8.107 c -4.84521,1.27773 -6.07077,4.88556 -2.72061,8.0284 z m -17.87638,53.77163 c 3.40583,3.12818 7.30432,2.10012 8.79939,-2.32048 l 2.01445,-6.35878 4.83928,-14.67957 c 1.04413,-4.08974 -0.0244,-8.31108 -2.87872,-11.37277 l -37.42116,-34.47413 c -3.30527,-2.73086 -7.91137,-3.79425 -12.4853,-2.85294 l -22.33262,5.88932 c -4.90093,1.29242 -6.13902,4.85058 -2.72062,8.02841 z"
     class="st1"
     style="fill:#d40000;fill-opacity:1;stroke-width:0.543181" /></g><path
   id="path35-7"
   d="m 110.24942,173.69445 c -1.72342,-3.22478 -3.8993,-9.6282 -4.83533,-14.22987 -1.64429,-8.08361 -4.33452,-12.46126 -6.832529,-11.11845 -0.662264,0.3562 -4.548392,5.32793 -8.635903,11.0488 -4.087519,5.72079 -7.507202,10.03077 -7.599344,9.57783 -0.09214,-0.45266 3.961418,-8.43289 9.007894,-17.73294 5.046471,-9.30016 9.710782,-19.52614 10.365062,-22.72436 0.6543,-3.19828 0.42977,-11.51654 -0.49889,-18.48511 -1.956013,-14.677465 -0.18,-13.91381 4.76805,2.05001 2.00684,6.47481 4.06225,10.65838 5.14332,10.46886 0.99041,-0.17374 6.44967,-4.76411 12.13181,-10.20108 13.8413,-13.244188 14.86984,-13.45188 4.39482,-0.88741 -19.6035,23.51374 -20.64307,26.64995 -16.90311,50.99355 l 2.62764,17.10345 z"
   style="fill:#d40000;fill-opacity:1;stroke-width:1.41642" /><path
   id="path35-1"
   d="m 134.31771,86.547353 c -1.4415,-3.006768 -3.23034,-8.99158 -3.97524,-13.299635 -1.30852,-7.567617 -3.56744,-11.64553 -5.73714,-10.356445 -0.5752,0.342316 -3.98903,5.052817 -7.58632,10.46898 -3.59726,5.416009 -6.60049,9.500461 -6.67381,9.07642 -0.0733,-0.423604 3.52485,-7.960024 7.99597,-16.746456 4.47109,-8.786381 8.62529,-18.437473 9.23159,-21.44661 0.60628,-3.009136 0.52388,-10.813536 -0.18307,-17.343109 -1.48906,-13.752633 0.0301,-13.056341 4.0798,1.869266 1.6423,6.053666 3.35696,9.956523 4.29072,9.766123 0.85549,-0.17323 5.61925,-4.545378 10.58633,-9.713433 12.09953,-12.589135 12.9883,-12.795903 3.79752,-0.883347 -17.20005,22.293586 -18.13736,25.248951 -15.24058,48.053217 l 2.03517,16.021798 z"
   style="fill:#d40000;fill-opacity:1;stroke-width:1.27342" /></svg>
